<?xml version="1.0" encoding="UTF-8"?>
<svg xmlns="http://www.w3.org/2000/svg" width="361" height="132" viewBox="0 0 361 132" fill="none">
  <path d="M1.50928 131.841L101.359 68.8712L108.689 42.9512L1.50928 131.841Z" fill="#17A1DB"></path>
  <path d="M0.649414 131.611L108.989 41.7706L120.739 0.810547L0.649414 131.611Z" fill="#5DCBED"></path>
  <path d="M109.45 42.9512L102.25 68.8612L129.34 111.781L109.45 42.9512Z" fill="#5DCBED"></path>
  <path d="M109.709 41.9006L129.899 111.381L121.529 0.810547L109.709 41.9006Z" fill="#17A1DB"></path>
  <path d="M146.739 86.6309H360.209" stroke="white" stroke-miterlimit="10"></path>
  <path d="M149.339 106.24C149.259 109.26 151.919 110.19 155.239 110.19C157.139 110.19 160.029 109.35 160.029 107.21C160.029 105.54 157.999 104.89 156.309 104.56L152.279 103.76C150.149 103.33 148.199 102.53 148.199 100.22C148.199 98.7798 149.339 96.0898 154.429 96.0898C158.029 96.0898 161.109 97.6299 161.109 100.66H159.389C159.259 98.4399 157.039 97.2899 154.449 97.2899C152.099 97.2899 149.919 98.0298 149.919 100.21C149.919 101.59 151.159 102.18 152.649 102.45L157.059 103.33C159.619 103.89 161.739 104.81 161.739 107.2C161.739 108.21 161.229 111.4 154.829 111.4C150.549 111.4 147.409 109.84 147.619 106.26H149.339V106.24Z" fill="white"></path>
  <path d="M164.479 96.3792H176.959V97.5692H166.199V102.879H176.279V104.069H166.199V109.869H177.089V111.059H164.479V96.3691V96.3792Z" fill="white"></path>
  <path d="M179.439 96.3809H181.969L188.219 109.261L194.449 96.3809H196.979V111.071H195.259V98.3809H195.209L189.029 111.071H187.409L181.209 98.3809H181.159V111.071H179.439V96.3809Z" fill="white"></path>
  <path d="M200.709 96.3809H202.429V111.071H200.709V96.3809Z" fill="white"></path>
  <path d="M219.419 100.83C218.809 98.5701 216.509 97.2701 213.879 97.2701C209.099 97.2701 207.069 100.52 207.069 103.73C207.069 106.94 209.099 110.19 213.879 110.19C217.219 110.19 219.349 108.09 219.679 105.48H221.399C220.919 109.1 218.109 111.38 213.879 111.38C208.179 111.38 205.349 107.76 205.349 103.73C205.349 99.7001 208.189 96.0801 213.879 96.0801C217.319 96.0801 220.669 97.7701 221.149 100.83H219.429H219.419Z" fill="white"></path>
  <path d="M231.599 96.0801C237.269 96.0801 240.109 99.7001 240.109 103.73C240.109 107.76 237.269 111.38 231.599 111.38C225.929 111.38 223.069 107.76 223.069 103.73C223.069 99.7001 225.909 96.0801 231.599 96.0801ZM231.599 110.19C236.359 110.19 238.379 106.94 238.379 103.73C238.379 100.52 236.349 97.2701 231.599 97.2701C226.849 97.2701 224.789 100.52 224.789 103.73C224.789 106.94 226.819 110.19 231.599 110.19Z" fill="white"></path>
  <path d="M242.759 96.3809H244.679L255.209 108.811H255.259V96.3809H256.979V111.071H255.059L244.529 98.6409H244.479V111.071H242.759V96.3809Z" fill="white"></path>
  <path d="M260.609 96.3809H266.859C272.329 96.4809 275.159 98.8709 275.159 103.731C275.159 108.591 272.319 110.971 266.859 111.071H260.609V96.3809ZM262.329 109.881H265.999C271.189 109.881 273.439 108.131 273.439 103.731C273.439 99.3309 271.189 97.5809 265.999 97.5809H262.329V109.881Z" fill="white"></path>
  <path d="M277.779 96.3809H279.499V105.471C279.499 108.871 281.449 110.181 284.789 110.181C288.129 110.181 290.109 108.861 290.109 105.471V96.3809H291.829V105.781C291.829 108.801 289.829 111.381 284.789 111.381C279.749 111.381 277.779 108.811 277.779 105.781V96.3809Z" fill="white"></path>
  <path d="M308.509 100.83C307.899 98.5701 305.599 97.2701 302.969 97.2701C298.189 97.2701 296.159 100.52 296.159 103.73C296.159 106.94 298.189 110.19 302.969 110.19C306.309 110.19 308.439 108.09 308.769 105.48H310.489C310.009 109.1 307.199 111.38 302.969 111.38C297.269 111.38 294.439 107.76 294.439 103.73C294.439 99.7001 297.279 96.0801 302.969 96.0801C306.409 96.0801 309.759 97.7701 310.239 100.83H308.519H308.509Z" fill="white"></path>
  <path d="M311.169 96.3809H325.499V97.5709H319.199V111.071H317.479V97.5709H311.179V96.3809H311.169Z" fill="white"></path>
  <path d="M334.769 96.0801C340.439 96.0801 343.279 99.7001 343.279 103.73C343.279 107.76 340.439 111.38 334.769 111.38C329.099 111.38 326.239 107.76 326.239 103.73C326.239 99.7001 329.079 96.0801 334.769 96.0801ZM334.769 110.19C339.529 110.19 341.549 106.94 341.549 103.73C341.549 100.52 339.519 97.2701 334.769 97.2701C330.019 97.2701 327.959 100.52 327.959 103.73C327.959 106.94 329.989 110.19 334.769 110.19Z" fill="white"></path>
  <path d="M345.959 96.3809H354.239C357.199 96.3809 359.729 97.5508 359.729 100.211C359.729 102.081 358.539 103.561 356.209 103.951V103.991C358.559 104.261 359.249 105.531 359.379 107.301C359.459 108.311 359.459 110.351 360.219 111.071H358.319C357.909 110.511 357.909 109.401 357.839 108.791C357.709 106.731 357.459 104.451 354.219 104.551H347.689V111.071H345.969V96.3809H345.959ZM347.679 103.351H354.109C356.209 103.351 358.009 102.281 358.009 100.491C358.009 98.7008 356.719 97.5709 354.109 97.5709H347.679V103.351Z" fill="white"></path>
  <path d="M146.749 77.0305L169.16 14.4805H190.01L212.419 77.0305H191.999L189.57 68.7805H169.149L166.799 77.0305H146.729H146.749ZM179.419 33.3305L173.079 55.7505H186.019L179.419 33.3305Z" fill="white"></path>
  <path d="M219.989 77.0305V14.4805H240.489V62.4405H268.639V77.0405H219.989V77.0305Z" fill="white"></path>
  <path d="M277.939 77.0305V14.4805H298.439V77.0305H277.939Z" fill="white"></path>
  <path d="M311.56 77.0305V14.4805H360.21V29.0805H332.06V40.4605H354.48V55.0605H332.06V77.0405H311.56V77.0305Z" fill="white"></path>
</svg>
